HIERARCHY
ROOT pelvis
{
  OFFSET 0 100 0
  CHANNELS 6 Xposition Yposition Zposition Zrotation Xrotation Yrotation
  JOINT pelvis_right_femur
  {
    OFFSET -10.78128 -3.44521 -0.5502486
    CHANNELS 3 Zrotation Xrotation Yrotation
    JOINT right_femur_tibia
    {
      OFFSET -0.8047443 -44.0398 -0.1307829
      CHANNELS 3 Zrotation Xrotation Yrotation
      JOINT right_tibia_foot
      {
        OFFSET 3.006224 -47.83518 -5
        CHANNELS 3 Zrotation Xrotation Yrotation
        End Site
        {
          OFFSET 0 -5 15
        }
      }
    }
  }
  JOINT pelvis_left_femur
  {
    OFFSET 10.78128 -3.44521 -0.5502486
    CHANNELS 3 Zrotation Xrotation Yrotation
    JOINT left_femur_tibia
    {
      OFFSET 0.8047443 -44.0398 -0.1307829
      CHANNELS 3 Zrotation Xrotation Yrotation
      JOINT left_tibia_foot
      {
        OFFSET -4.370144 -48.10324 -4.275266
        CHANNELS 3 Zrotation Xrotation Yrotation
        End Site
        {
          OFFSET 0 -5 15
        }
      }
    }
  }
  JOINT pelvis_spine1
  {
    OFFSET 0 6.468898 -3.129235
    CHANNELS 3 Zrotation Xrotation Yrotation
    JOINT spine1
    {
      OFFSET 0 23.15396 4.99043
      CHANNELS 3 Zrotation Xrotation Yrotation
      JOINT spine2
      {
        OFFSET 0 20.79997 -5.064912
        CHANNELS 3 Zrotation Xrotation Yrotation
        JOINT neck
        {
          OFFSET 0 14.38658 9.616178
          CHANNELS 3 Zrotation Xrotation Yrotation
          End Site
          {
            OFFSET 0 20 0
          }
        }
      }
      JOINT right_manubrium
      {
        OFFSET -5.722621 16.35077 3.967754
        CHANNELS 3 Zrotation Xrotation Yrotation
        JOINT right_clavicle
        {
          OFFSET -13.16364 1.694482 -4.693211
          CHANNELS 3 Zrotation Xrotation Yrotation
          JOINT right_humerus
          {
            OFFSET -28.5034 -0.3100689 -2.792744
            CHANNELS 3 Zrotation Xrotation Yrotation
            JOINT right_radius
            {
              OFFSET -25.15693 0.02248979 -1.271978
              CHANNELS 3 Zrotation Xrotation Yrotation
              End Site
              {
                OFFSET -15 0 0
              }
            }
          }
        }
      }
      JOINT left_manubrium
      {
        OFFSET 5.722621 16.35077 3.967754
        CHANNELS 3 Zrotation Xrotation Yrotation
        JOINT left_clavicle
        {
          OFFSET 13.16364 1.694482 -4.693211
          CHANNELS 3 Zrotation Xrotation Yrotation
          JOINT left_humerus
          {
            OFFSET 29.39168 -1.063119 -2.237045
            CHANNELS 3 Zrotation Xrotation Yrotation
            JOINT left_radius
            {
              OFFSET 24.59957 -0.9528479 0.9047498
              CHANNELS 3 Zrotation Xrotation Yrotation
              End Site
              {
                OFFSET 15 -0 -0
              }
            }
          }
        }
      }
    }
  }
}
MOTION
Frames: 11
Frame Time: 0.0416666666667
-328.8941 106.579 -299.0695 10.42166 -8.20897 57.04574 6.385697 14.03129 2.944797 -0 22.89484 -0 -7.964725 -16.87273 -6.328667 5.255212 -12.45842 -2.035434 -0 15.14312 -0 7.047553 2.376682 14.57639 2.358619 -5.842207 8.141933 -0.3537415 19.11357 -6.349851 1.765998 17.44891 0.5721261 -0.9461662 -15.21664 4.411068 -2.772942 -33.22713 12.56054 91.40831 9.854394 -9.510059 -0 0 34.81512 -24.7475 24.45189 15.24476 0.9903606 -23.72154 -10.6347 -93.74356 4.295879 39.46936 0 0 -5.694307 8.850083 15.20977 2.484489
-323.6349 106.5729 -296.8832 10.3322 -8.321738 56.42346 6.385697 14.03129 2.944797 -0 22.89484 -0 -7.964725 -16.87273 -6.328667 5.255212 -12.45842 -2.035434 -0 15.14312 -0 7.047553 2.376682 14.57639 2.358619 -5.842207 8.141933 -0.3537415 19.11357 -6.349851 1.765998 17.44891 0.5721261 -0.9461662 -15.21664 4.411068 -2.772942 -33.22713 12.56054 91.40831 9.854394 -9.510059 -0 0 34.81512 -24.7475 24.45189 15.24476 0.9903606 -23.72154 -10.6347 -93.74356 4.295879 39.46936 0 0 -5.694307 8.850083 15.20977 2.484489
-318.4 106.5667 -294.6395 10.24148 -8.433537 55.80082 6.385697 14.03129 2.944797 -0 22.89484 -0 -7.964725 -16.87273 -6.328667 5.255212 -12.45842 -2.035434 -0 15.14312 -0 7.047553 2.376682 14.57639 2.358619 -5.842207 8.141933 -0.3537415 19.11357 -6.349851 1.765998 17.44891 0.5721261 -0.9461662 -15.21664 4.411068 -2.772942 -33.22713 12.56054 91.40831 9.854394 -9.510059 -0 0 34.81512 -24.7475 24.45189 15.24476 0.9903606 -23.72154 -10.6347 -93.74356 4.295879 39.46936 0 0 -5.694307 8.850083 15.20977 2.484489
-313.1898 106.5606 -292.3388 10.14952 -8.544355 55.17783 6.385697 14.03129 2.944797 -0 22.89484 -0 -7.964725 -16.87273 -6.328667 5.255212 -12.45842 -2.035434 -0 15.14312 -0 7.047553 2.376682 14.57639 2.358619 -5.842207 8.141933 -0.3537415 19.11357 -6.349851 1.765998 17.44891 0.5721261 -0.9461662 -15.21664 4.411068 -2.772942 -33.22713 12.56054 91.40831 9.854394 -9.510059 -0 0 34.81512 -24.7475 24.45189 15.24476 0.9903606 -23.72154 -10.6347 -93.74356 4.295879 39.46936 0 0 -5.694307 8.850083 15.20977 2.484489
-308.0052 106.5544 -289.9812 10.05631 -8.654176 54.55447 6.385697 14.03129 2.944797 -0 22.89484 -0 -7.964725 -16.87273 -6.328667 5.255212 -12.45842 -2.035434 -0 15.14312 -0 7.047553 2.376682 14.57639 2.358619 -5.842207 8.141933 -0.3537415 19.11357 -6.349851 1.765998 17.44891 0.5721261 -0.9461662 -15.21664 4.411068 -2.772942 -33.22713 12.56054 91.40831 9.854394 -9.510059 -0 0 34.81512 -24.7475 24.45189 15.24476 0.9903606 -23.72154 -10.6347 -93.74356 4.295879 39.46936 0 0 -5.694307 8.850083 15.20977 2.484489
-302.8466 106.5483 -287.5672 9.961873 -8.762988 53.93076 6.385697 14.03129 2.944797 -0 22.89484 -0 -7.964725 -16.87273 -6.328667 5.255212 -12.45842 -2.035434 -0 15.14312 -0 7.047553 2.376682 14.57639 2.358619 -5.842207 8.141933 -0.3537415 19.11357 -6.349851 1.765998 17.44891 0.5721261 -0.9461662 -15.21664 4.411068 -2.772942 -33.22713 12.56054 91.40831 9.854394 -9.510059 -0 0 34.81512 -24.7475 24.45189 15.24476 0.9903606 -23.72154 -10.6347 -93.74356 4.295879 39.46936 0 0 -5.694307 8.850083 15.20977 2.484489
-297.7146 106.5421 -285.097 9.866214 -8.870778 53.30668 6.385697 14.03129 2.944797 -0 22.89484 -0 -7.964725 -16.87273 -6.328667 5.255212 -12.45842 -2.035434 -0 15.14312 -0 7.047553 2.376682 14.57639 2.358619 -5.842207 8.141933 -0.3537415 19.11357 -6.349851 1.765998 17.44891 0.5721261 -0.9461662 -15.21664 4.411068 -2.772942 -33.22713 12.56054 91.40831 9.854394 -9.510059 -0 0 34.81512 -24.7475 24.45189 15.24476 0.9903606 -23.72154 -10.6347 -93.74356 4.295879 39.46936 0 0 -5.694307 8.850083 15.20977 2.484489
-292.61 106.536 -282.5708 9.769345 -8.977531 52.68223 6.385697 14.03129 2.944797 -0 22.89484 -0 -7.964725 -16.87273 -6.328667 5.255212 -12.45842 -2.035434 -0 15.14312 -0 7.047553 2.376682 14.57639 2.358619 -5.842207 8.141933 -0.3537415 19.11357 -6.349851 1.765998 17.44891 0.5721261 -0.9461662 -15.21664 4.411068 -2.772942 -33.22713 12.56054 91.40831 9.854394 -9.510059 -0 0 34.81512 -24.7475 24.45189 15.24476 0.9903606 -23.72154 -10.6347 -93.74356 4.295879 39.46936 0 0 -5.694307 8.850083 15.20977 2.484489
-287.5333 106.5298 -279.989 9.671275 -9.083234 52.05742 6.385697 14.03129 2.944797 -0 22.89484 -0 -7.964725 -16.87273 -6.328667 5.255212 -12.45842 -2.035434 -0 15.14312 -0 7.047553 2.376682 14.57639 2.358619 -5.842207 8.141933 -0.3537415 19.11357 -6.349851 1.765998 17.44891 0.5721261 -0.9461662 -15.21664 4.411068 -2.772942 -33.22713 12.56054 91.40831 9.854394 -9.510059 -0 0 34.81512 -24.7475 24.45189 15.24476 0.9903606 -23.72154 -10.6347 -93.74356 4.295879 39.46936 0 0 -5.694307 8.850083 15.20977 2.484489
-282.4851 106.5237 -277.3518 9.572014 -9.187874 51.43224 6.385697 14.03129 2.944797 -0 22.89484 -0 -7.964725 -16.87273 -6.328667 5.255212 -12.45842 -2.035434 -0 15.14312 -0 7.047553 2.376682 14.57639 2.358619 -5.842207 8.141933 -0.3537415 19.11357 -6.349851 1.765998 17.44891 0.5721261 -0.9461662 -15.21664 4.411068 -2.772942 -33.22713 12.56054 91.40831 9.854394 -9.510059 -0 0 34.81512 -24.7475 24.45189 15.24476 0.9903606 -23.72154 -10.6347 -93.74356 4.295879 39.46936 0 0 -5.694307 8.850083 15.20977 2.484489
-277.466 106.5175 -274.6597 9.471573 -9.291439 50.8067 6.385697 14.03129 2.944797 -0 22.89484 -0 -7.964725 -16.87273 -6.328667 5.255212 -12.45842 -2.035434 -0 15.14312 -0 7.047553 2.376682 14.57639 2.358619 -5.842207 8.141933 -0.3537415 19.11357 -6.349851 1.765998 17.44891 0.5721261 -0.9461662 -15.21664 4.411068 -2.772942 -33.22713 12.56054 91.40831 9.854394 -9.510059 -0 0 34.81512 -24.7475 24.45189 15.24476 0.9903606 -23.72154 -10.6347 -93.74356 4.295879 39.46936 0 0 -5.694307 8.850083 15.20977 2.484489
